<svg xmlns="http://www.w3.org/2000/svg" xmlns:xlink="http://www.w3.org/1999/xlink" width="30" height="30" viewBox="0 0 30 30">
  <defs>
    <clipPath id="clip-path">
      <rect id="Rectangle_367" data-name="Rectangle 367" width="30" height="20.761" transform="translate(0 0)" fill="none"/>
    </clipPath>
  </defs>
  <g id="app-development-icon" transform="translate(-164 -914)">
    <rect id="Rectangle_366" data-name="Rectangle 366" width="30" height="30" transform="translate(164 914)" fill="none"/>
    <g id="Group_730" data-name="Group 730" transform="translate(164 919)">
      <g id="Group_729" data-name="Group 729" clip-path="url(#clip-path)">
        <path id="Path_716" data-name="Path 716" d="M2.229,20.762A2.231,2.231,0,0,1,0,18.532V7.776A2.231,2.231,0,0,1,2.229,5.547H7.478A2.231,2.231,0,0,1,9.706,7.776V18.532a2.232,2.232,0,0,1-2.228,2.23Zm0-13.22A.234.234,0,0,0,2,7.776V18.532a.235.235,0,0,0,.234.235H7.478a.235.235,0,0,0,.234-.235V7.776a.234.234,0,0,0-.234-.234Z" fill="#4d4d4d"/>
        <path id="Path_717" data-name="Path 717" d="M7.226,5.886H1.8A1.805,1.805,0,0,0,0,7.689V18.8a1.805,1.805,0,0,0,1.8,1.8H7.226a1.805,1.805,0,0,0,1.8-1.8V7.689a1.805,1.805,0,0,0-1.8-1.8M7.969,18.8a.744.744,0,0,1-.743.743H1.8a.744.744,0,0,1-.742-.743V7.689A.743.743,0,0,1,1.8,6.947H7.226a.743.743,0,0,1,.743.742Z" fill="#4d4d4d"/>
        <path id="Path_718" data-name="Path 718" d="M4.166,18.231a1,1,0,0,1,0-1.994H5.54a1,1,0,0,1,0,1.994Z" fill="#4d4d4d"/>
        <path id="Path_719" data-name="Path 719" d="M5.225,17.993H3.806a.531.531,0,1,1,0-1.061H5.225a.531.531,0,0,1,0,1.061" fill="#4d4d4d"/>
        <path id="Path_720" data-name="Path 720" d="M7.712,17.2V15.2H28.006V2H7.355V7.541H5.361V1a1,1,0,0,1,1-1H29a1,1,0,0,1,1,1V16.2a1,1,0,0,1-1,1Z" fill="#4d4d4d"/>
        <path id="Path_721" data-name="Path 721" d="M29.47.154H6.07a.53.53,0,0,0-.53.53V6.946H6.6V1.215H28.94V15.862H7.969v1.061h21.5a.53.53,0,0,0,.53-.53V.684a.53.53,0,0,0-.53-.53" fill="#4d4d4d"/>
        <path id="Path_722" data-name="Path 722" d="M14.116,20.761a1,1,0,0,1-1-1,4.561,4.561,0,0,1,9.122,0,1,1,0,0,1-1,1Zm5.931-1.994a2.569,2.569,0,0,0-4.735,0Z" fill="#4d4d4d"/>
        <path id="Path_723" data-name="Path 723" d="M20.562,16.923a4.214,4.214,0,0,0-7.006,3.153.53.53,0,0,0,.53.531h7.367a.53.53,0,0,0,.53-.531,4.205,4.205,0,0,0-1.421-3.153m-5.9,2.623a3.153,3.153,0,0,1,6.217,0Z" fill="#4d4d4d"/>
      </g>
    </g>
  </g>
</svg>
