<svg id="awt-acronym-logo" xmlns="http://www.w3.org/2000/svg" xmlns:xlink="http://www.w3.org/1999/xlink" width="122" height="75" viewBox="0 0 122 75">
  <defs>
    <clipPath id="clip-path">
      <rect id="Rectangle_365" data-name="Rectangle 365" width="121.999" height="46.562" fill="none"/>
    </clipPath>
  </defs>
  <rect id="Rectangle_250" data-name="Rectangle 250" width="122" height="75" fill="none"/>
  <g id="Group_728" data-name="Group 728" transform="translate(0 14)">
    <g id="Group_728-2" data-name="Group 728" clip-path="url(#clip-path)">
      <path id="Path_712" data-name="Path 712" d="M29.737,48.255l0,.343c-2.54-4.218-8.342-6.326-14.28-6.326a17.259,17.259,0,0,0-6.108,1.006A12.537,12.537,0,0,0,4.928,46a13.679,13.679,0,0,0-2.865,4.2A21.61,21.61,0,0,0,.474,55.477a39.427,39.427,0,0,0,0,12.185,21.571,21.571,0,0,0,1.589,5.272,13.851,13.851,0,0,0,2.865,4.219,12.383,12.383,0,0,0,4.423,2.74A17.259,17.259,0,0,0,15.459,80.9c5.938,0,11.74-2.109,14.28-6.328l-.02,4.911H36.8V43.688H34.286a4.549,4.549,0,0,0-4.549,4.567M27.17,66.291a11.845,11.845,0,0,1-1.448,3.7A6.6,6.6,0,0,1,22.9,72.525a9.957,9.957,0,0,1-4.392.882,10.04,10.04,0,0,1-4.425-.882,6.572,6.572,0,0,1-2.817-2.549,11.767,11.767,0,0,1-1.432-3.7,23.191,23.191,0,0,1-.425-4.708,23.621,23.621,0,0,1,.425-4.754,11.385,11.385,0,0,1,1.432-3.683,6.54,6.54,0,0,1,2.817-2.5,10.205,10.205,0,0,1,4.425-.866,10.12,10.12,0,0,1,4.392.866,6.539,6.539,0,0,1,2.817,2.5,11.661,11.661,0,0,1,1.448,3.683,22.767,22.767,0,0,1,.44,4.754,22.564,22.564,0,0,1-.44,4.723" transform="translate(0 -34.337)" fill="#fff"/>
      <path id="Path_713" data-name="Path 713" d="M261.713,49.82,254.63,75.1,247.4,51.691a2.654,2.654,0,0,0-2.536-1.871h-3.577a2.655,2.655,0,0,0-2.536,1.868L231.49,75.1l-7.052-25.28h-9.477l11.177,35.794h9.789l7.148-23.926,7.146,23.926h9.76L271.127,49.82Z" transform="translate(-174.616 -40.469)" fill="#fff"/>
      <path id="Path_714" data-name="Path 714" d="M551.619,38.816a11.592,11.592,0,0,1-2.568-.3,5.918,5.918,0,0,1-2-.945,4.033,4.033,0,0,1-1.417-2.031,10.326,10.326,0,0,1-.472-3.368V4.548A4.549,4.549,0,0,0,540.617,0H535.94V33.15a18.861,18.861,0,0,0,.74,5.588,10.579,10.579,0,0,0,1.889,3.731,8.452,8.452,0,0,0,2.88,2.172,12.627,12.627,0,0,0,3.4,1.086,23.921,23.921,0,0,0,3.748.268,24.9,24.9,0,0,0,8.752-1.354V37.527a14.146,14.146,0,0,1-5.729,1.289" transform="translate(-435.349 0.001)" fill="#fff"/>
      <path id="Path_715" data-name="Path 715" d="M593.492,49.82v6.989H580.435V53.314l7.433-3.494Z" transform="translate(-471.492 -40.469)" fill="#fff"/>
    </g>
  </g>
</svg>
