<svg xmlns="http://www.w3.org/2000/svg" xmlns:xlink="http://www.w3.org/1999/xlink" width="30" height="30" viewBox="0 0 30 30">
  <defs>
    <clipPath id="clip-path">
      <rect id="Rectangle_363" data-name="Rectangle 363" width="24.64" height="30" fill="none"/>
    </clipPath>
  </defs>
  <g id="biz-email-icon" transform="translate(-164 -914)">
    <rect id="Rectangle_362" data-name="Rectangle 362" width="30" height="30" transform="translate(164 914)" fill="none"/>
    <g id="Group_725" data-name="Group 725" transform="translate(167 914)">
      <g id="Group_724" data-name="Group 724" clip-path="url(#clip-path)">
        <path id="Path_693" data-name="Path 693" d="M23.55,14.57a1.73,1.73,0,0,0-.31-.14,2.138,2.138,0,0,0-.72-.13H2.12A2.121,2.121,0,0,0,0,16.42V27.88A2.121,2.121,0,0,0,2.12,30h20.4a2.121,2.121,0,0,0,2.12-2.12V16.42a2.108,2.108,0,0,0-1.09-1.85M23,27.2l-6.53-6.24L23,16.56ZM12.31,21.77,3.38,15.94H20.99ZM1.64,16.75,8.13,21,1.64,27.2Zm7.91,5.17,2.78,1.82,2.74-1.84,6.78,6.46H2.79Z" fill="#4d4d4d"/>
        <path id="Path_694" data-name="Path 694" d="M5.9,5.02a1.165,1.165,0,0,0,0-2.33,1.165,1.165,0,1,0,0,2.33" fill="#4d4d4d"/>
        <path id="Path_695" data-name="Path 695" d="M4.42,14.03h15.8a1.765,1.765,0,0,0,1.76-1.77V8.08a1.7,1.7,0,0,0-.37-1.07,1.667,1.667,0,0,0,.37-1.06V1.76A1.763,1.763,0,0,0,20.22,0H4.42A1.763,1.763,0,0,0,2.66,1.76V5.95a1.667,1.667,0,0,0,.37,1.06,1.7,1.7,0,0,0-.37,1.07v4.18a1.765,1.765,0,0,0,1.76,1.77M4.3,5.95V1.76a.116.116,0,0,1,.12-.12h15.8a.116.116,0,0,1,.12.12V5.95a.124.124,0,0,1-.12.13H4.42a.124.124,0,0,1-.12-.13M20.34,8.08v4.18a.124.124,0,0,1-.12.13H4.42a.124.124,0,0,1-.12-.13V8.08a.124.124,0,0,1,.12-.13h15.8a.124.124,0,0,1,.12.13" fill="#4d4d4d"/>
        <path id="Path_696" data-name="Path 696" d="M5.9,9.01a1.16,1.16,0,1,0,1.16,1.16A1.169,1.169,0,0,0,5.9,9.01" fill="#4d4d4d"/>
      </g>
    </g>
  </g>
</svg>
