<svg xmlns="http://www.w3.org/2000/svg" xmlns:xlink="http://www.w3.org/1999/xlink" width="74" height="126" viewBox="0 0 74 126">
  <defs>
    <clipPath id="clip-path">
      <rect id="Rectangle_37" data-name="Rectangle 37" width="69.231" height="80" fill="none"/>
    </clipPath>
  </defs>
  <g id="compute" transform="translate(-233 -744)">
    <g id="compute-icon" transform="translate(235 744)">
      <g id="Group_14" data-name="Group 14" clip-path="url(#clip-path)">
        <path id="Path_22" data-name="Path 22" d="M69.231,36.029c0,8.7-6.624,15.774-14.768,15.774H17.416C7.812,51.8,0,43.427,0,33.132c0-9.669,6.887-17.644,15.679-18.581C19.46,6.135,27.165.541,35.99.037c12.786-.729,23.2,9.6,24.987,21.841a15.89,15.89,0,0,1,8.254,14.151" transform="translate(0 0)" fill="#e5e5e5"/>
        <path id="Path_23" data-name="Path 23" d="M111.98,199.263V209.7a6.828,6.828,0,0,1-6.822,6.818H69A6.828,6.828,0,0,1,62.18,209.7V199.263A6.83,6.83,0,0,1,69,192.443h36.155a6.83,6.83,0,0,1,6.822,6.82" transform="translate(-52.464 -162.374)" fill="#f6921e"/>
        <rect id="Rectangle_35" data-name="Rectangle 35" width="22.769" height="8.3" transform="translate(15.996 37.955)" fill="#fff"/>
        <path id="Path_24" data-name="Path 24" d="M295.882,247.063a4.15,4.15,0,1,1-4.15-4.15,4.15,4.15,0,0,1,4.15,4.15" transform="translate(-242.647 -204.958)" fill="#fff"/>
        <path id="Path_25" data-name="Path 25" d="M111.98,364.761v10.433a6.828,6.828,0,0,1-6.822,6.818H69a6.828,6.828,0,0,1-6.822-6.818V364.761A6.83,6.83,0,0,1,69,357.941h36.155a6.83,6.83,0,0,1,6.822,6.82" transform="translate(-52.464 -302.013)" fill="#f6921e"/>
        <rect id="Rectangle_36" data-name="Rectangle 36" width="22.769" height="8.3" transform="translate(15.996 63.814)" fill="#fff"/>
        <path id="Path_26" data-name="Path 26" d="M295.882,412.56a4.15,4.15,0,1,1-4.15-4.15,4.15,4.15,0,0,1,4.15,4.15" transform="translate(-242.647 -344.596)" fill="#fff"/>
      </g>
    </g>
    <text id="Compute-2" data-name="Compute" transform="translate(270 866)" fill="#4d4d4d" font-size="18" font-family="Lato-Bold, Lato" font-weight="700"><tspan x="-36" y="0">Compute</tspan></text>
  </g>
</svg>
