<svg xmlns="http://www.w3.org/2000/svg" xmlns:xlink="http://www.w3.org/1999/xlink" width="30" height="30" viewBox="0 0 30 30">
  <defs>
    <clipPath id="clip-path">
      <rect id="Rectangle_377" data-name="Rectangle 377" width="30" height="16.658" transform="translate(0 0)" fill="none"/>
    </clipPath>
  </defs>
  <g id="education-icon" transform="translate(-164 -914)">
    <rect id="Rectangle_376" data-name="Rectangle 376" width="30" height="30" transform="translate(164 914)" fill="none"/>
    <g id="Group_746" data-name="Group 746" transform="translate(164 921)">
      <g id="Group_745" data-name="Group 745" clip-path="url(#clip-path)">
        <path id="Path_757" data-name="Path 757" d="M19.726,8.255l6.617-2.271L15,1.882,3.656,5.984l6.616,2.27v1.929L.616,6.869A.911.911,0,0,1,.6,5.149L14.69.055A.881.881,0,0,1,15,0a.9.9,0,0,1,.309.054L29.4,5.15a.911.911,0,0,1-.014,1.719l-9.658,3.314Z" fill="#4d4d4d"/>
        <path id="Path_758" data-name="Path 758" d="M29.233,5.605,15.145.51a.428.428,0,0,0-.291,0L.766,5.605a.427.427,0,0,0,.007.807l8.159,2.8.856.294V8.6l-.856-.294L2.2,6,15,1.368l7.74,2.8.856.309L27.8,6l-4.2,1.442-.856.294-1.673.574L20.21,8.6v.9l.856-.294,1.673-.574.856-.293,5.631-1.933a.427.427,0,0,0,.007-.807" fill="#4d4d4d"/>
        <path id="Path_759" data-name="Path 759" d="M15,16.658c-1.526,0-6.508-.165-6.551-2.3,0-.435.194-1.021,1.123-1.482A14.308,14.308,0,0,1,15,12.015a14.306,14.306,0,0,1,5.425.865,1.7,1.7,0,0,1,1.125,1.4c0,2.208-5.014,2.375-6.55,2.375m-4.166-2.321c.153.049.339.1.564.152a16.991,16.991,0,0,0,3.6.345,16.971,16.971,0,0,0,3.6-.345c.225-.052.412-.1.566-.152-.154-.049-.341-.1-.566-.152a16.881,16.881,0,0,0-3.6-.346,16.891,16.891,0,0,0-3.6.346c-.225.052-.411.1-.565.152" fill="#4d4d4d"/>
        <path id="Path_760" data-name="Path 760" d="M21.066,14.3c-.017-.412-.344-.737-.856-.99A14.027,14.027,0,0,0,15,12.5a14.033,14.033,0,0,0-5.211.815c-.525.261-.856.6-.856,1.023v.017c.03,1.437,3.823,1.821,6.067,1.821s6.068-.387,6.068-1.838c0-.011,0-.023,0-.033m-2.358.657A17.4,17.4,0,0,1,15,15.318a17.4,17.4,0,0,1-3.708-.358c-1.061-.243-1.429-.522-1.5-.624.067-.1.435-.381,1.5-.623A17.4,17.4,0,0,1,15,13.355a17.4,17.4,0,0,1,3.709.358c1.061.242,1.43.521,1.5.623-.066.1-.435.381-1.5.624" fill="#4d4d4d"/>
        <path id="Path_761" data-name="Path 761" d="M9.36,15.248a.91.91,0,0,1-.911-.877V7.064a.912.912,0,1,1,1.824,0v7.273a.912.912,0,0,1-.912.911" fill="#4d4d4d"/>
        <path id="Path_762" data-name="Path 762" d="M9.788,7.063v7.273a.428.428,0,0,1-.856.016V7.063a.428.428,0,1,1,.856,0" fill="#4d4d4d"/>
        <path id="Path_763" data-name="Path 763" d="M20.638,15.248a.912.912,0,0,1-.912-.911V7.064a.912.912,0,1,1,1.824,0v7.273a.912.912,0,0,1-.912.911" fill="#4d4d4d"/>
        <path id="Path_764" data-name="Path 764" d="M21.067,7.063v7.273a.428.428,0,0,1-.856,0V7.063a.428.428,0,1,1,.856,0" fill="#4d4d4d"/>
        <path id="Path_765" data-name="Path 765" d="M20.639,7.975a.906.906,0,0,1-.877-.658A3.86,3.86,0,0,0,18.6,6.911,16.9,16.9,0,0,0,15,6.565a16.9,16.9,0,0,0-3.6.346,3.891,3.891,0,0,0-1.161.406.912.912,0,0,1-1.788-.254c0-2.155,5.014-2.322,6.551-2.322s6.551.167,6.551,2.322a.913.913,0,0,1-.912.912" fill="#4d4d4d"/>
        <path id="Path_766" data-name="Path 766" d="M20.639,7.491a.428.428,0,0,1-.428-.416c-.044-.091-.4-.383-1.5-.636A17.383,17.383,0,0,0,15,6.081a17.4,17.4,0,0,0-3.709.358c-1.105.253-1.459.545-1.5.636a.428.428,0,0,1-.856-.012c0-1.451,3.813-1.838,6.067-1.838s6.067.387,6.067,1.838a.428.428,0,0,1-.428.428" fill="#4d4d4d"/>
        <path id="Path_767" data-name="Path 767" d="M23.167,11.754a.913.913,0,0,1-.912-.912V3.867a.912.912,0,0,1,1.824,0v6.975a.913.913,0,0,1-.912.912" fill="#4d4d4d"/>
        <path id="Path_768" data-name="Path 768" d="M23.167,11.27a.428.428,0,0,1-.428-.428V3.866a.428.428,0,1,1,.856,0v6.976a.428.428,0,0,1-.428.428" fill="#4d4d4d"/>
        <path id="Path_769" data-name="Path 769" d="M21.872,13.6a.912.912,0,0,1-.766-1.408L22.4,10.2a.9.9,0,0,1,.763-.413A.925.925,0,0,1,23.6,9.9a.935.935,0,0,1,.329.3l1.3,1.986a.921.921,0,0,1,.039.932.911.911,0,0,1-.8.479Z" fill="#4d4d4d"/>
        <path id="Path_770" data-name="Path 770" d="M24.821,12.452l-1.226-1.879-.069-.107a.438.438,0,0,0-.155-.142.432.432,0,0,0-.2-.052.426.426,0,0,0-.358.194l-.07.107-1.226,1.879a.428.428,0,0,0,.359.662h2.59a.429.429,0,0,0,.359-.662m-2.159-.194.5-.774.505.774Z" fill="#4d4d4d"/>
      </g>
    </g>
  </g>
</svg>
