<svg xmlns="http://www.w3.org/2000/svg" xmlns:xlink="http://www.w3.org/1999/xlink" width="30" height="30" viewBox="0 0 30 30">
  <defs>
    <clipPath id="clip-path">
      <rect id="Rectangle_373" data-name="Rectangle 373" width="30" height="24.36" transform="translate(0 0)" fill="none"/>
    </clipPath>
  </defs>
  <g id="enterprise-icon" transform="translate(-164 -911)">
    <rect id="Rectangle_372" data-name="Rectangle 372" width="30" height="30" transform="translate(164 911)" fill="none"/>
    <g id="Group_740" data-name="Group 740" transform="translate(164 914)">
      <g id="Group_739" data-name="Group 739" clip-path="url(#clip-path)">
        <path id="Path_744" data-name="Path 744" d="M2.5,24.36a2.5,2.5,0,0,1-2.5-2.5V5.715A2.139,2.139,0,0,1,2.137,3.578H27.862A2.139,2.139,0,0,1,30,5.715V21.861a2.5,2.5,0,0,1-2.5,2.5ZM2.137,5.454a.261.261,0,0,0-.261.261V21.861a.624.624,0,0,0,.623.623h25a.624.624,0,0,0,.622-.623V5.715a.261.261,0,0,0-.261-.261Z" fill="#4d4d4d"/>
        <path id="Path_745" data-name="Path 745" d="M28.292,3.791H1.708A1.708,1.708,0,0,0,0,5.5V22.184a2.082,2.082,0,0,0,2.082,2.082H27.917A2.083,2.083,0,0,0,30,22.184V5.5a1.708,1.708,0,0,0-1.708-1.708m.769,18.393a1.145,1.145,0,0,1-1.144,1.143H2.082A1.145,1.145,0,0,1,.939,22.184V5.5a.77.77,0,0,1,.769-.769H28.292a.77.77,0,0,1,.769.769Z" fill="#4d4d4d"/>
        <path id="Path_746" data-name="Path 746" d="M8.886,5.421V2.36A2.362,2.362,0,0,1,11.246,0h7.508a2.363,2.363,0,0,1,2.36,2.36V5.421ZM19.237,3.545V2.36a.483.483,0,0,0-.483-.483H11.246a.483.483,0,0,0-.483.483V3.545Z" fill="#4d4d4d"/>
        <path id="Path_747" data-name="Path 747" d="M18.879.094H11.12A1.938,1.938,0,0,0,9.182,2.032V4.7H20.817V2.032A1.938,1.938,0,0,0,18.879.094M10.121,2.032a1,1,0,0,1,1-1h7.759a1,1,0,0,1,1,1V3.756H10.121Z" fill="#4d4d4d"/>
        <path id="Path_748" data-name="Path 748" d="M.321,11.668.729,9.836l12.726,2.829v1.923Z" fill="#4d4d4d"/>
        <path id="Path_749" data-name="Path 749" d="M11.964,12.873l.939.209v.962l-.939-.209L.939,11.384l-.511-.113.2-.917.307.068Z" fill="#4d4d4d"/>
        <path id="Path_750" data-name="Path 750" d="M16.546,12.678,29.793,9.837,30,10.8v.907L16.546,14.6Z" fill="#4d4d4d"/>
        <path id="Path_751" data-name="Path 751" d="M30,10.812v.48l-.939.2L18.036,13.858l-.939.2V13.1l.939-.2,11.025-2.365.841-.18Z" fill="#4d4d4d"/>
        <path id="Path_752" data-name="Path 752" d="M13.331,17.784a1.755,1.755,0,0,1-1.753-1.753V12.587a1.756,1.756,0,0,1,1.753-1.752h3.337a1.756,1.756,0,0,1,1.754,1.752v3.444a1.755,1.755,0,0,1-1.754,1.753Zm3.215-5.073H13.455v3.2h3.091Z" fill="#4d4d4d"/>
        <path id="Path_753" data-name="Path 753" d="M16.725,11.29H13.276A1.314,1.314,0,0,0,11.964,12.6V16.16a1.313,1.313,0,0,0,1.312,1.311h3.449a1.312,1.312,0,0,0,1.311-1.311V12.6a1.313,1.313,0,0,0-1.311-1.312m.372,4.87a.373.373,0,0,1-.372.372H13.276a.373.373,0,0,1-.373-.372V12.6a.373.373,0,0,1,.373-.373h3.449a.373.373,0,0,1,.372.373Z" fill="#4d4d4d"/>
      </g>
    </g>
  </g>
</svg>
