<svg xmlns="http://www.w3.org/2000/svg" xmlns:xlink="http://www.w3.org/1999/xlink" width="30" height="30" viewBox="0 0 30 30">
  <defs>
    <clipPath id="clip-path">
      <rect id="Rectangle_379" data-name="Rectangle 379" width="28.258" height="30" fill="none"/>
    </clipPath>
  </defs>
  <g id="financial-icon" transform="translate(-164 -914)">
    <rect id="Rectangle_378" data-name="Rectangle 378" width="30" height="30" transform="translate(164 914)" fill="none"/>
    <g id="Group_749" data-name="Group 749" transform="translate(165 914)">
      <g id="Group_748" data-name="Group 748" clip-path="url(#clip-path)">
        <path id="Path_771" data-name="Path 771" d="M.945,30A.946.946,0,0,1,0,29.054V17.679a.947.947,0,0,1,.945-.945H3.9a.947.947,0,0,1,.946.945V29.054A.947.947,0,0,1,3.9,30ZM2.957,18.625H1.891v9.484H2.957Z" fill="#4d4d4d"/>
        <path id="Path_772" data-name="Path 772" d="M3.9,29.516H.945a.461.461,0,0,1-.461-.462V17.68a.461.461,0,0,1,.461-.462H3.9a.461.461,0,0,1,.461.462V29.054a.461.461,0,0,1-.461.462m-2.5-.923H3.44V18.142H1.407Z" fill="#4d4d4d"/>
        <path id="Path_773" data-name="Path 773" d="M6.8,30a.946.946,0,0,1-.945-.946V14.926A.947.947,0,0,1,6.8,13.98H9.755a.947.947,0,0,1,.946.946V29.054A.947.947,0,0,1,9.755,30ZM8.81,15.871H7.744V28.109H8.81Z" fill="#4d4d4d"/>
        <path id="Path_774" data-name="Path 774" d="M9.755,29.516H6.8a.462.462,0,0,1-.462-.462V14.926a.462.462,0,0,1,.462-.462H9.755a.462.462,0,0,1,.462.462V29.054a.462.462,0,0,1-.462.462M7.26,28.593H9.293V15.388H7.26Z" fill="#4d4d4d"/>
        <path id="Path_775" data-name="Path 775" d="M12.651,30a.947.947,0,0,1-.946-.946V12.3a.946.946,0,0,1,.946-.945h2.957a.947.947,0,0,1,.946.945V29.054a.947.947,0,0,1-.946.946Zm2.011-16.752H13.6V28.109h1.065Z" fill="#4d4d4d"/>
        <path id="Path_776" data-name="Path 776" d="M15.608,29.516H12.651a.462.462,0,0,1-.462-.462V12.3a.462.462,0,0,1,.462-.462h2.957a.462.462,0,0,1,.462.462V29.054a.462.462,0,0,1-.462.462m-2.5-.923h2.033V12.764H13.112Z" fill="#4d4d4d"/>
        <path id="Path_777" data-name="Path 777" d="M18.5,30a.947.947,0,0,1-.946-.946V8.842A.947.947,0,0,1,18.5,7.9H21.46a.947.947,0,0,1,.946.946V29.054A.947.947,0,0,1,21.46,30ZM20.514,9.788H19.449V28.109h1.065Z" fill="#4d4d4d"/>
        <path id="Path_778" data-name="Path 778" d="M21.46,29.516H18.5a.462.462,0,0,1-.462-.462V8.842A.462.462,0,0,1,18.5,8.38H21.46a.462.462,0,0,1,.462.462V29.054a.462.462,0,0,1-.462.462m-2.495-.923H21V9.3H18.965Z" fill="#4d4d4d"/>
        <path id="Path_779" data-name="Path 779" d="M24.356,30a.947.947,0,0,1-.946-.946V6.3a.947.947,0,0,1,.946-.946h2.957a.947.947,0,0,1,.945.946V29.054a.946.946,0,0,1-.945.946ZM26.367,7.251H25.3V28.109h1.066Z" fill="#4d4d4d"/>
        <path id="Path_780" data-name="Path 780" d="M27.313,29.516H24.356a.462.462,0,0,1-.462-.462V6.3a.462.462,0,0,1,.462-.462h2.957a.462.462,0,0,1,.462.462V29.054a.462.462,0,0,1-.462.462m-2.495-.923h2.033V6.767H24.818Z" fill="#4d4d4d"/>
        <path id="Path_781" data-name="Path 781" d="M1.027,13.248a.946.946,0,1,1,0-1.891,29.894,29.894,0,0,0,7.38-1.342A53.736,53.736,0,0,0,26.152.615a.951.951,0,0,1,.582-.2.946.946,0,0,1,.582,1.692A60.6,60.6,0,0,1,17.235,8.531,49.988,49.988,0,0,1,8.9,11.842a30.793,30.793,0,0,1-7.869,1.406" fill="#4d4d4d"/>
        <path id="Path_782" data-name="Path 782" d="M1.027,12.764a.462.462,0,1,1,0-.924,30.058,30.058,0,0,0,7.516-1.361A54.21,54.21,0,0,0,26.45,1a.462.462,0,0,1,.568.728,60.062,60.062,0,0,1-10,6.375,49.414,49.414,0,0,1-8.258,3.279,30.282,30.282,0,0,1-7.732,1.386" fill="#4d4d4d"/>
        <path id="Path_783" data-name="Path 783" d="M26.654,4.388a.885.885,0,0,1-.218-.026.946.946,0,0,1-.7-1.134l.309-1.337h-1.6a.946.946,0,0,1,0-1.891H27.23a.934.934,0,0,1,.741.36.941.941,0,0,1,.18.8l-.576,2.494a.94.94,0,0,1-.921.733" fill="#4d4d4d"/>
        <path id="Path_784" data-name="Path 784" d="M26.655,3.9a.468.468,0,0,1-.1-.012.461.461,0,0,1-.346-.554l.446-1.931H24.438a.462.462,0,1,1,0-.923h2.793a.461.461,0,0,1,.45.566l-.576,2.5a.463.463,0,0,1-.45.358" fill="#4d4d4d"/>
      </g>
    </g>
  </g>
</svg>
