<svg xmlns="http://www.w3.org/2000/svg" xmlns:xlink="http://www.w3.org/1999/xlink" width="30" height="30" viewBox="0 0 30 30">
  <defs>
    <clipPath id="clip-path">
      <rect id="Rectangle_375" data-name="Rectangle 375" width="24.181" height="30" fill="none"/>
    </clipPath>
  </defs>
  <g id="healthcare-icon" transform="translate(-164 -914)">
    <rect id="Rectangle_374" data-name="Rectangle 374" width="30" height="30" transform="translate(164 914)" fill="none"/>
    <g id="healthcare-icon-2" data-name="healthcare-icon" transform="translate(167 914)">
      <g id="Group_742" data-name="Group 742" clip-path="url(#clip-path)">
        <path id="Path_754" data-name="Path 754" d="M7.257,26.984C2.78,24.191,0,18.6,0,12.406V5.253L12.089,0,24.18,5.253v7.153c0,6.2-2.78,11.784-7.257,14.578L12.089,30ZM1.826,12.406a17.446,17.446,0,0,0,1.76,7.727,12.924,12.924,0,0,0,4.637,5.3l3.866,2.413,3.868-2.413a12.948,12.948,0,0,0,4.638-5.3,17.449,17.449,0,0,0,1.759-7.727V6.45L12.089,1.99,1.826,6.45Z" fill="#4d4d4d"/>
        <path id="Path_755" data-name="Path 755" d="M12.09,1.465,22.836,6.134v6.272a17.936,17.936,0,0,1-1.809,7.941,13.428,13.428,0,0,1-4.815,5.5L12.09,28.416,7.968,25.844a13.428,13.428,0,0,1-4.815-5.5,17.936,17.936,0,0,1-1.809-7.941V6.134Zm0-.94L.481,5.569v6.837c0,6,2.721,11.48,7.031,14.169l4.578,2.858,4.579-2.858c4.309-2.689,7.03-8.173,7.03-14.169V5.569Z" fill="#4d4d4d"/>
        <path id="Path_756" data-name="Path 756" d="M14.521,12.655V9.167H9.771v3.488h-3.5v4.75h3.5v3.5h4.75v-3.5h3.488v-4.75Zm2.149,3.411h-3.5v3.488H11.11V16.066H7.622V14H11.11v-3.5h2.062V14h3.5Z" fill="#4d4d4d"/>
      </g>
    </g>
  </g>
</svg>
