<svg xmlns="http://www.w3.org/2000/svg" width="20" height="20" viewBox="0 0 20 20">
  <path id="icon-instagram" d="M-1972,20h-16a2,2,0,0,1-2-2V2a2,2,0,0,1,2-2h16a2,2,0,0,1,2,2V18A2,2,0,0,1-1972,20Zm-7.5-17c-1.335,0-2.521.02-3.094.053a4.428,4.428,0,0,0-3.142,1.208,4.429,4.429,0,0,0-1.211,3.143c-.071,1.243-.071,4.944,0,6.187a4.407,4.407,0,0,0,1.211,3.143,4.448,4.448,0,0,0,3.142,1.211c.578.033,1.763.053,3.093.053s2.516-.02,3.094-.053a4.405,4.405,0,0,0,3.142-1.211,4.431,4.431,0,0,0,1.211-3.143c.071-1.242.071-4.941,0-6.184a4.4,4.4,0,0,0-1.211-3.142,4.438,4.438,0,0,0-3.142-1.211C-1976.979,3.02-1978.165,3-1979.5,3Zm1.324,13.654c-.28,0-.551,0-.789-.005-.2,0-.378,0-.533,0s-.328,0-.521,0c-.237,0-.5,0-.777,0a10.733,10.733,0,0,1-3.123-.31,2.534,2.534,0,0,1-1.426-1.425,13.516,13.516,0,0,1-.305-3.888v-.02c0-.19,0-.363,0-.513s0-.328,0-.521a13.675,13.675,0,0,1,.3-3.9,2.533,2.533,0,0,1,1.426-1.426,10.536,10.536,0,0,1,3.088-.31c.281,0,.553,0,.793.005.2,0,.385,0,.54,0s.33,0,.525,0c.234,0,.5,0,.776,0a10.745,10.745,0,0,1,3.12.309,2.535,2.535,0,0,1,1.426,1.426,13.516,13.516,0,0,1,.305,3.888v.017c0,.191,0,.365,0,.516s0,.325,0,.516v.017a13.506,13.506,0,0,1-.305,3.888,2.53,2.53,0,0,1-1.426,1.425A10.576,10.576,0,0,1-1978.176,16.654Zm-1.322-10a3.85,3.85,0,0,0-3.846,3.845,3.85,3.85,0,0,0,3.846,3.845,3.849,3.849,0,0,0,3.845-3.845A3.849,3.849,0,0,0-1979.5,6.654Zm4-1.055a.9.9,0,0,0-.9.9.9.9,0,0,0,.9.9.9.9,0,0,0,.9-.9A.9.9,0,0,0-1975.5,5.6Zm-4,7.4a2.5,2.5,0,0,1-2.5-2.5,2.5,2.5,0,0,1,2.5-2.5,2.5,2.5,0,0,1,2.5,2.5A2.5,2.5,0,0,1-1979.5,13Z" transform="translate(1990)" fill="#fff"/>
</svg>
