<svg xmlns="http://www.w3.org/2000/svg" xmlns:xlink="http://www.w3.org/1999/xlink" width="536" height="210" viewBox="0 0 536 210">
  <defs>
    <clipPath id="clip-path">
      <rect id="Rectangle_252" data-name="Rectangle 252" width="84.899" height="106.622" fill="none"/>
    </clipPath>
  </defs>
  <g id="iso-27001:2013" transform="translate(-1244 -3361)">
    <g id="Rectangle_255" data-name="Rectangle 255" transform="translate(1244 3361)" fill="#fff" stroke="#ccc" stroke-width="2">
      <rect width="536" height="210" rx="16" stroke="none"/>
      <rect x="1" y="1" width="534" height="208" rx="15" fill="none"/>
    </g>
    <g id="iso-27001:2013-2" data-name="iso-27001:2013" transform="translate(1172.949 224)">
      <g id="Group_501" data-name="Group 501" transform="translate(190.051 3189)">
        <path id="Path_503" data-name="Path 503" d="M0,445.628l15.31-2.09,9.178,12.707L45.015,408.9,20.525,398.283Z" transform="translate(0 -349.623)" fill="#006"/>
        <path id="Path_504" data-name="Path 504" d="M326.445,408.9l20.526,47.346,9.178-12.706,15.311,2.09-20.526-47.346Z" transform="translate(-286.562 -349.622)" fill="#006"/>
        <path id="Path_505" data-name="Path 505" d="M70.687,0,58.245,2.445,45.805,0,37.177,9.287l-11.5,5.342-1.536,12.58L18,38.29l6.15,11.08L25.681,61.95l11.5,5.342L45.8,76.58l12.441-2.445L70.686,76.58l8.628-9.287,11.5-5.341L92.345,49.37,98.5,38.29,92.345,27.21,90.81,14.629l-11.5-5.342Z" transform="translate(-15.797)" fill="#f2d24c"/>
        <g id="Group_500" data-name="Group 500" transform="translate(0 0)">
          <g id="Group_499" data-name="Group 499" clip-path="url(#clip-path)">
            <path id="Path_506" data-name="Path 506" d="M146.846,80.371a32.434,32.434,0,1,1-32.434-32.434,32.433,32.433,0,0,1,32.434,32.434" transform="translate(-71.963 -42.08)" fill="#006"/>
            <path id="Path_507" data-name="Path 507" d="M130.944,127.035A30.133,30.133,0,1,1,161.077,96.9a30.166,30.166,0,0,1-30.133,30.132m0-58.911A28.779,28.779,0,1,0,159.723,96.9a28.811,28.811,0,0,0-28.779-28.779" transform="translate(-88.495 -58.612)" fill="#fff"/>
            <path id="Path_508" data-name="Path 508" d="M271.524,261.918,265.51,255.9l2.642-2.642,3.372,3.372,11.366-11.366,2.642,2.642Z" transform="translate(-233.071 -215.303)" fill="#f2d24c"/>
          </g>
        </g>
      </g>
      <g id="Group_502" data-name="Group 502" transform="translate(12.949 15)">
        <text id="ISO_27001:2013_Certified" data-name="ISO 27001:2013 Certified" transform="translate(278 3220)" font-size="18" font-family="Lato-Bold, Lato" font-weight="700"><tspan x="0" y="0">ISO 27001:2013 Certified</tspan></text>
        <text id="Information_Security_Management" data-name="Information Security Management" transform="translate(278 3248)" fill="#ccc" font-size="18" font-family="Lato-Bold, Lato" font-weight="700"><tspan x="0" y="0">Information Security Management</tspan></text>
      </g>
    </g>
  </g>
</svg>
