<svg id="managed-security-icon" xmlns="http://www.w3.org/2000/svg" xmlns:xlink="http://www.w3.org/1999/xlink" width="75.448" height="80" viewBox="0 0 75.448 80">
  <defs>
    <clipPath id="clip-path">
      <rect id="Rectangle_265" data-name="Rectangle 265" width="75.448" height="80" fill="none"/>
    </clipPath>
  </defs>
  <g id="Group_558" data-name="Group 558" clip-path="url(#clip-path)">
    <path id="Path_561" data-name="Path 561" d="M41.454,197.864H6.6a6.6,6.6,0,0,1-6.6-6.6V165.687a6.6,6.6,0,0,1,6.6-6.6H41.454a6.6,6.6,0,0,1,6.6,6.6v25.582a6.6,6.6,0,0,1-6.6,6.6" transform="translate(0 -134.233)" fill="#e5e5e5"/>
    <path id="Path_562" data-name="Path 562" d="M86.36,31.845H79.611V15.318a8.569,8.569,0,0,0-17.137,0V31.845H55.724V15.318a15.318,15.318,0,0,1,30.636,0Z" transform="translate(-47.017)" fill="#e5e5e5"/>
    <path id="Path_563" data-name="Path 563" d="M171.221,169.928h-5.293a2.514,2.514,0,0,1-2.4-1.765,19.487,19.487,0,0,0-1.3-3.137,2.518,2.518,0,0,1,.445-2.949l3.743-3.744a2.321,2.321,0,0,0,0-3.287l-2.524-2.524a2.324,2.324,0,0,0-3.287,0l-3.743,3.744a2.521,2.521,0,0,1-2.949.445,19.4,19.4,0,0,0-3.137-1.3,2.515,2.515,0,0,1-1.765-2.4v-5.293a2.323,2.323,0,0,0-2.324-2.323h-3.57a2.325,2.325,0,0,0-2.325,2.323v5.292a2.517,2.517,0,0,1-1.763,2.4,19.406,19.406,0,0,0-3.138,1.3,2.519,2.519,0,0,1-2.95-.445l-3.743-3.741a2.322,2.322,0,0,0-3.285,0l-2.526,2.524a2.325,2.325,0,0,0,0,3.285l3.744,3.744a2.521,2.521,0,0,1,.445,2.949,19.486,19.486,0,0,0-1.3,3.137,2.515,2.515,0,0,1-2.4,1.765h-5.293a2.322,2.322,0,0,0-2.323,2.323v3.57a2.322,2.322,0,0,0,2.323,2.323h5.292a2.516,2.516,0,0,1,2.4,1.765,19.178,19.178,0,0,0,1.3,3.137,2.522,2.522,0,0,1-.447,2.951l-3.743,3.741a2.327,2.327,0,0,0,0,3.287l2.526,2.526a2.322,2.322,0,0,0,3.285,0l3.744-3.743a2.518,2.518,0,0,1,2.95-.447,19.17,19.17,0,0,0,3.137,1.3,2.518,2.518,0,0,1,1.765,2.4v5.293a2.325,2.325,0,0,0,2.323,2.324h3.57a2.325,2.325,0,0,0,2.325-2.324v-5.293a2.517,2.517,0,0,1,1.763-2.4,19.551,19.551,0,0,0,3.137-1.3,2.518,2.518,0,0,1,2.949.445l3.744,3.743a2.322,2.322,0,0,0,3.285,0l2.526-2.524a2.324,2.324,0,0,0,0-3.287L162.675,186a2.521,2.521,0,0,1-.445-2.95,19.349,19.349,0,0,0,1.3-3.138,2.515,2.515,0,0,1,2.4-1.763h5.293a2.324,2.324,0,0,0,2.323-2.325v-3.569a2.323,2.323,0,0,0-2.323-2.323M144.9,183.8a9.767,9.767,0,1,1,9.766-9.768A9.768,9.768,0,0,1,144.9,183.8" transform="translate(-98.097 -122.678)" fill="#2e3191"/>
    <path id="Path_564" data-name="Path 564" d="M256.584,275.96a9.767,9.767,0,1,1-9.766-9.766,9.767,9.767,0,0,1,9.766,9.766" transform="translate(-200.011 -224.601)" fill="#fff"/>
    <path id="Path_565" data-name="Path 565" d="M252.789,301.108l-4.531-4.531,1.99-1.99,2.541,2.541,8.563-8.563,1.99,1.99Z" transform="translate(-209.467 -243.476)" fill="#2e3191"/>
  </g>
</svg>
