<svg id="management_support_-_icon" data-name="management&amp;support - icon" xmlns="http://www.w3.org/2000/svg" xmlns:xlink="http://www.w3.org/1999/xlink" width="80" height="80" viewBox="0 0 80 80">
  <defs>
    <clipPath id="clip-path">
      <rect id="Rectangle_42" data-name="Rectangle 42" width="80" height="80" fill="none"/>
    </clipPath>
  </defs>
  <g id="Group_19" data-name="Group 19" clip-path="url(#clip-path)">
    <path id="Path_43" data-name="Path 43" d="M76.755,34.261H69.364a3.515,3.515,0,0,1-3.35-2.463A27.081,27.081,0,0,0,64.2,27.416a3.519,3.519,0,0,1,.622-4.12l5.227-5.227a3.244,3.244,0,0,0,0-4.591L66.522,9.952a3.247,3.247,0,0,0-4.591,0L56.7,15.18a3.52,3.52,0,0,1-4.12.623,27.044,27.044,0,0,0-4.38-1.816,3.515,3.515,0,0,1-2.464-3.35V3.245A3.245,3.245,0,0,0,42.494,0H37.506a3.245,3.245,0,0,0-3.245,3.245v7.391a3.514,3.514,0,0,1-2.464,3.35A27.085,27.085,0,0,0,27.415,15.8a3.519,3.519,0,0,1-4.119-.623L18.069,9.953a3.245,3.245,0,0,0-4.589,0L9.953,13.48a3.245,3.245,0,0,0,0,4.589L15.181,23.3a3.519,3.519,0,0,1,.623,4.119A27.08,27.08,0,0,0,13.988,31.8a3.514,3.514,0,0,1-3.35,2.464H3.245A3.245,3.245,0,0,0,0,37.506v4.987a3.245,3.245,0,0,0,3.245,3.245h7.391a3.514,3.514,0,0,1,3.35,2.463A27.1,27.1,0,0,0,15.8,52.585a3.519,3.519,0,0,1-.623,4.12L9.953,61.931a3.247,3.247,0,0,0,0,4.591l3.527,3.527a3.245,3.245,0,0,0,4.589,0L23.3,64.821a3.519,3.519,0,0,1,4.119-.623A27.05,27.05,0,0,0,31.8,66.013a3.515,3.515,0,0,1,2.465,3.351v7.391A3.245,3.245,0,0,0,37.508,80h4.986a3.246,3.246,0,0,0,3.247-3.245V69.364a3.515,3.515,0,0,1,2.463-3.35,27.054,27.054,0,0,0,4.38-1.816,3.52,3.52,0,0,1,4.12.622l5.229,5.228a3.245,3.245,0,0,0,4.589,0l3.527-3.527a3.245,3.245,0,0,0,0-4.589L64.821,56.7a3.519,3.519,0,0,1-.623-4.119A27.076,27.076,0,0,0,66.014,48.2a3.514,3.514,0,0,1,3.35-2.464h7.39A3.245,3.245,0,0,0,80,42.492V37.506a3.245,3.245,0,0,0-3.245-3.245M40,53.642A13.641,13.641,0,1,1,53.641,40,13.641,13.641,0,0,1,40,53.642" fill="#2e3191"/>
  </g>
</svg>
