<svg xmlns="http://www.w3.org/2000/svg" xmlns:xlink="http://www.w3.org/1999/xlink" width="30" height="30" viewBox="0 0 30 30">
  <defs>
    <clipPath id="clip-path">
      <rect id="Rectangle_381" data-name="Rectangle 381" width="30" height="27.824" transform="translate(0 0)" fill="none"/>
    </clipPath>
  </defs>
  <g id="manufacturing-icon" transform="translate(-164 -914)">
    <rect id="Rectangle_380" data-name="Rectangle 380" width="30" height="30" transform="translate(164 914)" fill="none"/>
    <g id="Group_752" data-name="Group 752" transform="translate(164 915)">
      <g id="Group_751" data-name="Group 751" clip-path="url(#clip-path)">
        <path id="Path_785" data-name="Path 785" d="M.918,27.805A.919.919,0,0,1,0,26.888V10.465a.917.917,0,0,1,.528-.829L6.962,6.592A.933.933,0,0,1,7.356,6.5a.917.917,0,0,1,.916.917V26.888a.919.919,0,0,1-.917.917ZM6.437,25.97V8.871l-4.6,2.176V25.97Z" fill="#4d4d4d"/>
        <path id="Path_786" data-name="Path 786" d="M7.355,27.322H.917a.433.433,0,0,1-.433-.433V10.466a.434.434,0,0,1,.248-.392L7.169,7.03a.434.434,0,0,1,.619.392V26.889a.433.433,0,0,1-.433.433m-6-.867h5.57V8.107l-5.57,2.634Z" fill="#4d4d4d"/>
        <path id="Path_787" data-name="Path 787" d="M7.355,27.805a.919.919,0,0,1-.918-.917V10.465a.919.919,0,0,1,.528-.829L13.4,6.592a.932.932,0,0,1,.393-.088.917.917,0,0,1,.916.917V26.888a.918.918,0,0,1-.916.917Zm5.52-1.835V8.87l-4.6,2.177V25.97Z" fill="#4d4d4d"/>
        <path id="Path_788" data-name="Path 788" d="M13.792,27.322H7.354a.433.433,0,0,1-.433-.433V10.466a.434.434,0,0,1,.248-.392L13.606,7.03a.434.434,0,0,1,.619.392V26.889a.433.433,0,0,1-.433.433m-6-.867h5.57V8.107l-5.57,2.634Z" fill="#4d4d4d"/>
        <path id="Path_789" data-name="Path 789" d="M13.792,27.805a.919.919,0,0,1-.918-.917V10.465a.917.917,0,0,1,.528-.829l6.434-3.044A.933.933,0,0,1,20.23,6.5a.917.917,0,0,1,.916.917V26.888a.919.919,0,0,1-.917.917Zm5.519-1.835V8.87l-4.6,2.177V25.97Z" fill="#4d4d4d"/>
        <path id="Path_790" data-name="Path 790" d="M20.229,27.322H13.792a.433.433,0,0,1-.434-.433V10.466a.434.434,0,0,1,.248-.392L20.043,7.03a.433.433,0,0,1,.619.392V26.889a.433.433,0,0,1-.433.433m-6-.867H19.8V8.107l-5.569,2.634Z" fill="#4d4d4d"/>
        <path id="Path_791" data-name="Path 791" d="M20.229,27.824a.919.919,0,0,1-.918-.918V11.489a.919.919,0,0,1,.918-.918h8.853a.919.919,0,0,1,.918.918V26.906a.919.919,0,0,1-.918.918Zm7.936-15.418H21.147V25.989h7.018Z" fill="#4d4d4d"/>
        <path id="Path_792" data-name="Path 792" d="M29.083,27.34H20.229a.434.434,0,0,1-.434-.433V11.489a.434.434,0,0,1,.434-.434h8.854a.433.433,0,0,1,.433.434V26.907a.433.433,0,0,1-.433.433m-8.42-.867h7.986V11.922H20.663Z" fill="#4d4d4d"/>
        <path id="Path_793" data-name="Path 793" d="M26.915,12.241A.916.916,0,0,1,26,11.425l-1.06-9.59h-.576l-1.06,9.589a.917.917,0,0,1-.912.817l-.1-.006a.919.919,0,0,1-.811-1.011L22.635.816A.916.916,0,0,1,23.547,0h2.217a.917.917,0,0,1,.913.815l1.151,10.408a.918.918,0,0,1-.811,1.012Z" fill="#4d4d4d"/>
        <path id="Path_794" data-name="Path 794" d="M26.916,11.758a.433.433,0,0,1-.43-.386L25.377,1.351H23.936L22.827,11.372a.434.434,0,0,1-.862-.095L23.116.87a.434.434,0,0,1,.431-.386h2.218A.433.433,0,0,1,26.2.87l1.152,10.407a.434.434,0,0,1-.384.478.387.387,0,0,1-.048,0" fill="#4d4d4d"/>
        <path id="Path_795" data-name="Path 795" d="M23.21,4.881a.917.917,0,1,1,0-1.834H26.1a.917.917,0,1,1,0,1.834Z" fill="#4d4d4d"/>
        <path id="Path_796" data-name="Path 796" d="M26.1,4.4H23.21a.434.434,0,0,1,0-.867H26.1a.434.434,0,1,1,0,.867" fill="#4d4d4d"/>
      </g>
    </g>
  </g>
</svg>
