<svg xmlns="http://www.w3.org/2000/svg" xmlns:xlink="http://www.w3.org/1999/xlink" width="30" height="30" viewBox="0 0 30 30">
  <defs>
    <clipPath id="clip-path">
      <rect id="Rectangle_371" data-name="Rectangle 371" width="30" height="25.184" transform="translate(0 0)" fill="none"/>
    </clipPath>
  </defs>
  <g id="paas-icon" transform="translate(-164 -914)">
    <rect id="Rectangle_370" data-name="Rectangle 370" width="30" height="30" transform="translate(164 914)" fill="none"/>
    <g id="Group_736" data-name="Group 736" transform="translate(164 917)">
      <g id="Group_735" data-name="Group 735" clip-path="url(#clip-path)">
        <path id="Path_738" data-name="Path 738" d="M.943,20.758A.944.944,0,0,1,0,19.815V.943A.944.944,0,0,1,.943,0H29.057A.944.944,0,0,1,30,.943V19.815a.944.944,0,0,1-.943.943ZM28.114,1.886H1.887V18.873H28.114Z" fill="#4d4d4d"/>
        <path id="Path_739" data-name="Path 739" d="M29.057,20.275H.943a.459.459,0,0,1-.459-.459V.943A.458.458,0,0,1,.943.484H29.057a.459.459,0,0,1,.459.459V19.816a.46.46,0,0,1-.459.459M1.4,19.356H28.6V1.4H1.4Z" fill="#4d4d4d"/>
        <path id="Path_740" data-name="Path 740" d="M10.574,25.184a.944.944,0,0,1-.943-.943,5.369,5.369,0,0,1,10.737,0,.945.945,0,0,1-.943.943ZM18.353,23.3a3.483,3.483,0,0,0-6.706,0Z" fill="#4d4d4d"/>
        <path id="Path_741" data-name="Path 741" d="M19.425,24.7H10.574a.459.459,0,0,1-.459-.459,4.885,4.885,0,1,1,9.769,0,.459.459,0,0,1-.459.459m-8.365-.918h7.879a3.966,3.966,0,0,0-7.879,0" fill="#4d4d4d"/>
        <path id="Path_742" data-name="Path 742" d="M11.17,16.632a4.515,4.515,0,0,1-4.363-4.643,4.55,4.55,0,0,1,3.65-4.581,5.8,5.8,0,0,1,4.822-3.273c.1-.006.207-.008.311-.008a6,6,0,0,1,5.72,5.048,4.015,4.015,0,0,1,1.883,3.459,3.9,3.9,0,0,1-3.773,4ZM15.382,6.018a3.947,3.947,0,0,0-3.321,2.408l-.329.734-.8.085A2.4,2.4,0,0,0,9.37,10.1a2.917,2.917,0,0,0-.677,1.889,2.631,2.631,0,0,0,2.477,2.757h8.25a2.011,2.011,0,0,0,1.888-2.112,2.148,2.148,0,0,0-1.087-1.909l-.634-.332-.1-.708a4.527,4.527,0,0,0-1.346-2.61A3.7,3.7,0,0,0,15.59,6.012c-.069,0-.139,0-.208.006" fill="#4d4d4d"/>
        <path id="Path_743" data-name="Path 743" d="M15.59,5.529a4.189,4.189,0,0,1,2.882,1.2,5.013,5.013,0,0,1,1.49,2.892l.067.464.415.217a2.635,2.635,0,0,1,1.347,2.338A2.494,2.494,0,0,1,19.42,15.23H11.17a3.113,3.113,0,0,1-2.962-3.24A3.4,3.4,0,0,1,9,9.786,2.869,2.869,0,0,1,10.88,8.765l.524-.056.216-.481a4.428,4.428,0,0,1,3.738-2.692C15.436,5.532,15.512,5.529,15.59,5.529Zm0-.918c-.1,0-.189,0-.284.008a5.325,5.325,0,0,0-4.523,3.233A4.065,4.065,0,0,0,7.291,11.99a4.03,4.03,0,0,0,3.879,4.158h8.25a3.41,3.41,0,0,0,3.289-3.513,3.538,3.538,0,0,0-1.838-3.151A5.553,5.553,0,0,0,15.59,4.611" fill="#4d4d4d"/>
      </g>
    </g>
  </g>
</svg>
