<svg id="saas-icon" xmlns="http://www.w3.org/2000/svg" xmlns:xlink="http://www.w3.org/1999/xlink" width="74.58" height="80" viewBox="0 0 74.58 80">
  <defs>
    <clipPath id="clip-path">
      <rect id="Rectangle_293" data-name="Rectangle 293" width="74.58" height="80" fill="none"/>
    </clipPath>
  </defs>
  <g id="Group_615" data-name="Group 615" clip-path="url(#clip-path)">
    <path id="Path_587" data-name="Path 587" d="M69.2,36.012c0,8.694-6.621,15.767-14.761,15.767H17.408C7.808,51.778,0,43.406,0,33.116c0-9.665,6.883-17.635,15.671-18.572,3.78-8.413,11.48-14,20.3-14.508,12.78-.729,23.188,9.6,24.975,21.831A15.882,15.882,0,0,1,69.2,36.012" transform="translate(0 0)" fill="#e5e5e5"/>
    <path id="Path_588" data-name="Path 588" d="M144.681,261.085a6.636,6.636,0,0,1-10.819,5.153v16.121H119.769a6.637,6.637,0,1,0-12.338,0H93.9V266.236a6.637,6.637,0,1,1,0-10.3V239.811H107.43a6.637,6.637,0,1,0,12.338,0h14.093v16.121a6.636,6.636,0,0,1,10.819,5.153" transform="translate(-70.101 -202.358)" fill="#f6921e"/>
  </g>
</svg>
