<svg id="storage-icon" xmlns="http://www.w3.org/2000/svg" xmlns:xlink="http://www.w3.org/1999/xlink" width="79.962" height="80" viewBox="0 0 79.962 80">
  <defs>
    <clipPath id="clip-path">
      <rect id="Rectangle_288" data-name="Rectangle 288" width="79.962" height="80" fill="none"/>
    </clipPath>
  </defs>
  <g id="Group_600" data-name="Group 600" clip-path="url(#clip-path)">
    <path id="Path_574" data-name="Path 574" d="M74.976,384.3H4.985A4.985,4.985,0,0,1,0,379.31V365.6a4.985,4.985,0,0,1,4.985-4.985H74.976a4.985,4.985,0,0,1,4.985,4.985V379.31a4.985,4.985,0,0,1-4.985,4.985" transform="translate(0 -304.295)" fill="#e5e5e5"/>
    <rect id="Rectangle_285" data-name="Rectangle 285" width="42.661" height="8.312" transform="translate(4.813 64.003)" fill="#f6921e"/>
    <path id="Path_575" data-name="Path 575" d="M351.851,413.974a4.156,4.156,0,1,1-4.156-4.156,4.156,4.156,0,0,1,4.156,4.156" transform="translate(-289.887 -345.815)" fill="#f6921e"/>
    <path id="Path_576" data-name="Path 576" d="M436.271,413.974a4.156,4.156,0,1,1-4.156-4.156,4.156,4.156,0,0,1,4.156,4.156" transform="translate(-361.123 -345.815)" fill="#f6921e"/>
    <path id="Path_577" data-name="Path 577" d="M74.976,203.988H4.985A4.985,4.985,0,0,1,0,199V185.292a4.985,4.985,0,0,1,4.985-4.985H74.976a4.985,4.985,0,0,1,4.985,4.985V199a4.985,4.985,0,0,1-4.985,4.985" transform="translate(0 -152.148)" fill="#e5e5e5"/>
    <rect id="Rectangle_286" data-name="Rectangle 286" width="42.661" height="8.312" transform="translate(4.813 35.844)" fill="#f6921e"/>
    <path id="Path_578" data-name="Path 578" d="M351.851,233.667a4.156,4.156,0,1,1-4.156-4.156,4.156,4.156,0,0,1,4.156,4.156" transform="translate(-289.887 -193.667)" fill="#f6921e"/>
    <path id="Path_579" data-name="Path 579" d="M436.271,233.667a4.156,4.156,0,1,1-4.156-4.156,4.156,4.156,0,0,1,4.156,4.156" transform="translate(-361.123 -193.667)" fill="#f6921e"/>
    <path id="Path_580" data-name="Path 580" d="M74.976,23.681H4.985A4.985,4.985,0,0,1,0,18.7V4.985A4.985,4.985,0,0,1,4.985,0H74.976a4.985,4.985,0,0,1,4.985,4.985V18.7a4.985,4.985,0,0,1-4.985,4.985" fill="#e5e5e5"/>
    <rect id="Rectangle_287" data-name="Rectangle 287" width="42.661" height="8.312" transform="translate(4.813 7.684)" fill="#f6921e"/>
    <path id="Path_581" data-name="Path 581" d="M351.851,53.36A4.156,4.156,0,1,1,347.7,49.2a4.156,4.156,0,0,1,4.156,4.156" transform="translate(-289.887 -41.52)" fill="#f6921e"/>
    <path id="Path_582" data-name="Path 582" d="M436.271,53.36a4.156,4.156,0,1,1-4.156-4.156,4.156,4.156,0,0,1,4.156,4.156" transform="translate(-361.123 -41.52)" fill="#f6921e"/>
  </g>
</svg>
